<svg xmlns="http://www.w3.org/2000/svg" viewBox="0 0 97 76.48"><title>advance tabs</title><g id="Layer_2" data-name="Layer 2"><g id="Layer_1-2" data-name="Layer 1"><path d="M0,71.91a4.58,4.58,0,0,0,4.57,4.57H92.43A4.58,4.58,0,0,0,97,71.91V20.2a4.58,4.58,0,0,0-4.57-4.57H45.69c-2.17,0-3.28-1.19-5.49-3.56l-6.45-7.2C31.89,2.51,29.58,0,25.74,0H4.57A4.58,4.58,0,0,0,0,4.57ZM4.57,3H25.74C28,3,29.5,4.33,31.45,6.8l6.31,7.05.24.26c2.36,2.52,4.22,4.52,7.69,4.52H92.43A1.57,1.57,0,0,1,94,20.2V71.91a1.57,1.57,0,0,1-1.57,1.57H4.57A1.57,1.57,0,0,1,3,71.91V4.57A1.57,1.57,0,0,1,4.57,3Z"/><path d="M13.54,11.05h8.39a1.5,1.5,0,0,0,0-3H13.54a1.5,1.5,0,0,0,0,3Z"/><path d="M51.05,8.05a1.5,1.5,0,0,0,0,3h8.39a1.5,1.5,0,0,0,0-3Z"/><path d="M77.57,8.05a1.5,1.5,0,0,0,0,3H86a1.5,1.5,0,0,0,0-3Z"/><path d="M17.45,41.57V52a3.5,3.5,0,0,0,3.5,3.5H31.34a3.5,3.5,0,0,0,3.5-3.5V41.57a3.5,3.5,0,0,0-3.5-3.5H21A3.5,3.5,0,0,0,17.45,41.57ZM31.84,52a.5.5,0,0,1-.5.5H21a.5.5,0,0,1-.5-.5V41.57a.5.5,0,0,1,.5-.5H31.34a.5.5,0,0,1,.5.5Z"/><path d="M44,43.63h34.1a1.5,1.5,0,0,0,0-3H44a1.5,1.5,0,0,0,0,3Z"/><path d="M44,52.16H69.52a1.5,1.5,0,0,0,0-3H44a1.5,1.5,0,0,0,0,3Z"/></g></g></svg>