<svg xmlns="http://www.w3.org/2000/svg" viewBox="0 0 97 73.44"><title>post carousel</title><g id="Layer_2" data-name="Layer 2"><g id="Layer_1-2" data-name="Layer 1"><path d="M0,62.84A4.17,4.17,0,0,0,4.16,67h7.66v2.94a3.5,3.5,0,0,0,3.5,3.5H81.76a3.5,3.5,0,0,0,3.5-3.5v-3h7.58A4.17,4.17,0,0,0,97,62.76V10.68a4.17,4.17,0,0,0-4.16-4.16H85.26v-3A3.5,3.5,0,0,0,81.76,0H15.32a3.5,3.5,0,0,0-3.5,3.5V6.6H4.16A4.17,4.17,0,0,0,0,10.76ZM4.16,9.6h7.66V64H4.16A1.16,1.16,0,0,1,3,62.84V10.76A1.16,1.16,0,0,1,4.16,9.6Zm78.1,60.34a.5.5,0,0,1-.5.5H15.32a.5.5,0,0,1-.5-.5V3.5a.5.5,0,0,1,.5-.5H81.76a.5.5,0,0,1,.5.5ZM94,62.76a1.16,1.16,0,0,1-1.16,1.16H85.26V9.52h7.58A1.16,1.16,0,0,1,94,10.68Z"/><path d="M63.23,45.11H33.77a1.5,1.5,0,1,0,0,3H63.23a1.5,1.5,0,1,0,0-3Z"/><path d="M56.53,54.39H40.47a1.5,1.5,0,0,0,0,3H56.53a1.5,1.5,0,0,0,0-3Z"/><path d="M40.38,33.48H56.62a2.5,2.5,0,0,0,2.5-2.5V20.83a2.5,2.5,0,0,0-2.5-2.5H40.38a2.5,2.5,0,0,0-2.5,2.5V31A2.5,2.5,0,0,0,40.38,33.48Zm.5-3V21.33H56.12v9.15Z"/></g></g></svg>