<svg xmlns="http://www.w3.org/2000/svg" viewBox="0 0 97 75.85"><title>reviews</title><g id="Layer_2" data-name="Layer 2"><g id="Layer_1-2" data-name="Layer 1"><path d="M.55,75.5a1.48,1.48,0,0,0,1,.35,1.39,1.39,0,0,0,.57-.12L17.18,69.5H91.65c3,0,5.35-3.45,5.35-7.85V7.85C97,3.45,94.65,0,91.65,0H9.19c-3,0-5.34,3.45-5.34,7.85V55.1L0,74.05A1.49,1.49,0,0,0,.55,75.5Zm3-3.61,3.29-16.3a1.36,1.36,0,0,0,0-.29V7.85C6.85,4.89,8.23,3,9.19,3H91.65C92.61,3,94,4.89,94,7.85v53.8c0,3-1.39,4.85-2.35,4.85H16.88a1.41,1.41,0,0,0-.57.11Z"/><path d="M21.07,44l-.61,3.59a2.13,2.13,0,0,0,2.1,2.48,2.05,2.05,0,0,0,1-.25l3.17-1.67,3.18,1.67A2.12,2.12,0,0,0,33,47.63l-.62-3.55,2.52-2.5A2.11,2.11,0,0,0,33.74,38l-3.52-.52-1.59-3.22A2.1,2.1,0,0,0,26,33.14a2,2,0,0,0-1.17,1.06l-1.6,3.23-3.42.51a2.11,2.11,0,0,0-1.37.65,2.11,2.11,0,0,0,.07,3Zm8.27.09.39,2.25L27.68,45.3a2.16,2.16,0,0,0-1.95,0l-2,1.06.39-2.28a2.08,2.08,0,0,0-.62-1.89l-1.61-1.55,2.18-.33a2.06,2.06,0,0,0,1.65-1.16l1-2.05,1,2a2.09,2.09,0,0,0,1.62,1.22l2.23.33L30,42.24A2.07,2.07,0,0,0,29.34,44.13Z"/><path d="M44.09,30.94l-.61,3.57a2.1,2.1,0,0,0,.21,1.37A2.13,2.13,0,0,0,45.57,37h0a2.13,2.13,0,0,0,1-.24l3.18-1.68,3.18,1.68a2.13,2.13,0,0,0,1,.24,2.19,2.19,0,0,0,.36,0,2.11,2.11,0,0,0,1.37-.87A2.08,2.08,0,0,0,56,34.52L55.39,31l2.52-2.49a2.17,2.17,0,0,0,.65-1.28,2.13,2.13,0,0,0-.42-1.56,2.1,2.1,0,0,0-1.38-.8l-3.52-.52L51.65,21.1a2.17,2.17,0,0,0-1-1A2.12,2.12,0,0,0,49,20a2.07,2.07,0,0,0-1.17,1.06l-1.6,3.23-3.42.51a2.11,2.11,0,0,0-1.3,3.63Zm8.26.08.39,2.25-2.05-1.08a2.19,2.19,0,0,0-1.95,0l-2,1.06L47.12,31a2.07,2.07,0,0,0-.62-1.89l-1.6-1.55,2.18-.32a2.06,2.06,0,0,0,1.64-1.17l1-2,1,2a2.06,2.06,0,0,0,1.61,1.22l2.24.33L53,29.13A2.13,2.13,0,0,0,52.35,31Z"/><path d="M67.1,44l-.61,3.58a2.13,2.13,0,0,0,2.1,2.49,2.05,2.05,0,0,0,1-.25l3.17-1.67,3.18,1.67A2.12,2.12,0,0,0,79,47.63l-.61-3.55,2.51-2.5a2.09,2.09,0,0,0,.65-1.27,2,2,0,0,0-.42-1.56,2.07,2.07,0,0,0-1.38-.8l-3.52-.52-1.59-3.22a2.13,2.13,0,0,0-1-1A2.09,2.09,0,0,0,72,33.14a2.06,2.06,0,0,0-1.18,1.06l-1.59,3.23-3.43.51a2.09,2.09,0,0,0-1.94,2.16,2.08,2.08,0,0,0,.64,1.47Zm8.27.09.39,2.25L73.71,45.3a2.16,2.16,0,0,0-1.95,0l-2,1.06.39-2.28a2.08,2.08,0,0,0-.62-1.89l-1.61-1.55,2.18-.33a2,2,0,0,0,1.65-1.16l1-2.05,1,2a2.09,2.09,0,0,0,1.62,1.22l2.24.33L76,42.24A2.1,2.1,0,0,0,75.37,44.13Z"/></g></g></svg>