<svg xmlns="http://www.w3.org/2000/svg" viewBox="0 0 96.78 97.01"><title>write</title><g id="Layer_2" data-name="Layer 2"><g id="Layer_1-2" data-name="Layer 1"><path d="M73.26,1.58,63.94,10.9l-.06,0s0,0-.05.06L31.66,43.19a5.1,5.1,0,0,0-1.57,3.47L29.7,64.93a3.52,3.52,0,0,0,3.6,3.7,3.87,3.87,0,0,0,.48,0l16.59-1.81a5.23,5.23,0,0,0,3.1-1.55L85.74,33a.24.24,0,0,0,.16-.16l9.3-9.29c1.87-1.88,2.11-4.58.54-6.15L79.41,1C77.84-.53,75.14-.29,73.26,1.58ZM51.35,63.12a2.34,2.34,0,0,1-1.3.69l-16.6,1.81a.75.75,0,0,1-.59-.13.67.67,0,0,1-.16-.5l.39-18.27a2.17,2.17,0,0,1,.69-1.41L65,14.14,82.64,31.83ZM93.08,21.39l-8.32,8.32L67.07,12,75.38,3.7h0c.75-.75,1.63-.82,1.91-.54L93.62,19.49C93.9,19.77,93.82,20.65,93.08,21.39Z"/><path d="M3.29,11.12H44.45a1.5,1.5,0,0,0,0-3H3.29A3.29,3.29,0,0,0,0,11.41V93.72A3.3,3.3,0,0,0,3.29,97H85.6a3.29,3.29,0,0,0,3.29-3.29V52.58a1.5,1.5,0,0,0-3,0V93.72a.29.29,0,0,1-.29.29H3.29A.29.29,0,0,1,3,93.72V11.41A.29.29,0,0,1,3.29,11.12Z"/></g></g></svg>