<svg xmlns="http://www.w3.org/2000/svg" viewBox="0 0 87.6 97"><title>bag</title><g id="Layer_2" data-name="Layer 2"><g id="Layer_1-2" data-name="Layer 1"><path d="M.76,95.88A3.33,3.33,0,0,0,3.27,97H84.33a3.33,3.33,0,0,0,2.51-1.12,3.06,3.06,0,0,0,.73-2.42L77.38,18.39a3.23,3.23,0,0,0-3.24-2.72H60a16.22,16.22,0,0,0-32.42,0H13.46a3.23,3.23,0,0,0-3.24,2.72L0,93.46A3.06,3.06,0,0,0,.76,95.88ZM43.8,3A13,13,0,0,1,57,15.67H30.59A13,13,0,0,1,43.8,3ZM13.19,18.8s.11-.13.27-.13H74.14a.29.29,0,0,1,.27.13L84.58,93.9a.34.34,0,0,1-.25.1H3.27A.34.34,0,0,1,3,93.87Z"/></g></g></svg>